<?xml version="1.0" encoding="utf-8"?>
<!-- Generator: Adobe Illustrator 21.0.1, SVG Export Plug-In . SVG Version: 6.00 Build 0)  -->
<svg version="1.1" id="Layer_1" xmlns="http://www.w3.org/2000/svg" xmlns:xlink="http://www.w3.org/1999/xlink" x="0px" y="0px"
	 viewBox="0 0 30 30" style="enable-background:new 0 0 30 30;" xml:space="preserve">
<style type="text/css">
	.st0{fill:#404040;}
</style>
<g>
	<path class="st0" d="M15,16.8c-5,0-9-1.6-9-3.6v3.6c0,2,4,3.6,9,3.6c5,0,9-1.6,9-3.6v-3.6C24,15.2,20,16.8,15,16.8L15,16.8z"/>
	<path class="st0" d="M15,22.2c-5,0-9-1.6-9-3.6v3.6c0,2,4,3.6,9,3.6c5,0,9-1.6,9-3.6v-3.6C24,20.6,20,22.2,15,22.2L15,22.2z"/>
	<g>
		<path class="st0" d="M15,4.2c-5,0-9,1.6-9,3.6v3.6c0,2,4,3.6,9,3.6c5,0,9-1.6,9-3.6V7.8C24,5.8,20,4.2,15,4.2L15,4.2z M15,10.5
			c-5,0-8.1-1.6-8.1-2.7c0-1.1,3.2-2.7,8.1-2.7c5,0,8.1,1.6,8.1,2.7C23.1,8.9,20,10.5,15,10.5L15,10.5z"/>
	</g>
</g>
</svg>
